<svg xmlns="http://www.w3.org/2000/svg" xmlns:xlink="http://www.w3.org/1999/xlink" version="1.1" data-diagram-type="SEQUENCE" style="width:965px;height:437px;background:#FFFFFF;" width="965px" height="437px" viewBox="0 0 965 437" zoomAndPan="magnify" preserveAspectRatio="none" contentStyleType="text/css"><?plantuml 1.2026.8?><defs/><g font-family="sans-serif" lengthAdjust="spacing"><g><title>Comercio</title><rect x="43.452" y="87.609" width="8" height="260.813" fill="#000" fill-opacity="0"/><line x1="46.952" y1="87.609" x2="46.952" y2="348.422" style="stroke:#181818;stroke-width:0.5;stroke-dasharray:5,5;"/></g><g><title>Flow</title><rect x="225.686" y="87.609" width="8" height="260.813" fill="#000" fill-opacity="0"/><line x1="229.186" y1="87.609" x2="229.186" y2="348.422" style="stroke:#181818;stroke-width:0.5;stroke-dasharray:5,5;"/></g><g><title>Cliente</title><rect x="423.834" y="87.609" width="8" height="260.813" fill="#000" fill-opacity="0"/><line x1="427.334" y1="87.609" x2="427.334" y2="348.422" style="stroke:#181818;stroke-width:0.5;stroke-dasharray:5,5;"/></g><g><title>PaymentRouter</title><rect x="621.982" y="87.609" width="8" height="260.813" fill="#000" fill-opacity="0"/><line x1="625.482" y1="87.609" x2="625.482" y2="348.422" style="stroke:#181818;stroke-width:0.5;stroke-dasharray:5,5;"/></g><g><title>Cuenta del comercio</title><rect x="880.058" y="87.609" width="8" height="260.813" fill="#000" fill-opacity="0"/><line x1="883.558" y1="87.609" x2="883.558" y2="348.422" style="stroke:#181818;stroke-width:0.5;stroke-dasharray:5,5;"/></g><rect x="10" y="55" width="73.903" height="31.609" fill="#E2E2F0" style="stroke:#181818;stroke-width:0.5;" rx="2.5" ry="2.5"/><text x="17" y="76.533" fill="#000" font-size="14" textLength="59.903">Comercio</text><rect x="207.407" y="55" width="43.559" height="31.609" fill="#E2E2F0" style="stroke:#181818;stroke-width:0.5;" rx="2.5" ry="2.5"/><text x="214.407" y="76.533" fill="#000" font-size="14" textLength="29.559">Flow</text><text x="402.544" y="84.533" fill="#000" font-size="14" textLength="43.579">Cliente</text><ellipse cx="427.334" cy="18.5" rx="8" ry="8" fill="#E2E2F0" style="stroke:#181818;stroke-width:0.5;"/><path d="M427.334,26.5 L427.334,53.5 M414.334,34.5 L440.334,34.5 M427.334,53.5 L414.334,68.5 M427.334,53.5 L440.334,68.5" style="stroke:#181818;stroke-width:0.5;" fill="none"/><rect x="569.848" y="55" width="111.269" height="31.609" fill="#E2E2F0" style="stroke:#181818;stroke-width:0.5;" rx="2.5" ry="2.5"/><text x="576.848" y="76.533" fill="#000" font-size="14" textLength="97.269">PaymentRouter</text><rect x="812.358" y="55" width="142.399" height="31.609" fill="#E2E2F0" style="stroke:#181818;stroke-width:0.5;" rx="2.5" ry="2.5"/><text x="819.358" y="76.533" fill="#000" font-size="14" textLength="128.399">Cuenta del comercio</text><rect x="10" y="348.422" width="73.903" height="31.609" fill="#E2E2F0" style="stroke:#181818;stroke-width:0.5;" rx="2.5" ry="2.5"/><text x="17" y="369.955" fill="#000" font-size="14" textLength="59.903">Comercio</text><rect x="207.407" y="348.422" width="43.559" height="31.609" fill="#E2E2F0" style="stroke:#181818;stroke-width:0.5;" rx="2.5" ry="2.5"/><text x="214.407" y="369.955" fill="#000" font-size="14" textLength="29.559">Flow</text><text x="402.544" y="362.955" fill="#000" font-size="14" textLength="43.579">Cliente</text><ellipse cx="427.334" cy="374.531" rx="8" ry="8" fill="#E2E2F0" style="stroke:#181818;stroke-width:0.5;"/><path d="M427.334,382.531 L427.334,409.531 M414.334,390.531 L440.334,390.531 M427.334,409.531 L414.334,424.531 M427.334,409.531 L440.334,424.531" style="stroke:#181818;stroke-width:0.5;" fill="none"/><rect x="569.848" y="348.422" width="111.269" height="31.609" fill="#E2E2F0" style="stroke:#181818;stroke-width:0.5;" rx="2.5" ry="2.5"/><text x="576.848" y="369.955" fill="#000" font-size="14" textLength="97.269">PaymentRouter</text><rect x="812.358" y="348.422" width="142.399" height="31.609" fill="#E2E2F0" style="stroke:#181818;stroke-width:0.5;" rx="2.5" ry="2.5"/><text x="819.358" y="369.955" fill="#000" font-size="14" textLength="128.399">Cuenta del comercio</text><polygon points="217.186,113.961,227.186,117.961,217.186,121.961,221.186,117.961" fill="#181818" style="stroke:#181818;stroke-width:1;stroke-linejoin:miter;stroke-miterlimit:10;"/><line x1="46.952" y1="117.961" x2="223.186" y2="117.961" style="stroke:#181818;stroke-width:1;"/><text x="53.952" y="113.104" fill="#000" font-size="13" textLength="158.234">crear cobro (consola o API)</text><polygon points="57.952,144.313,47.952,148.313,57.952,152.313,53.952,148.313" fill="#181818" style="stroke:#181818;stroke-width:1;stroke-linejoin:miter;stroke-miterlimit:10;"/><line x1="51.952" y1="148.313" x2="228.186" y2="148.313" style="stroke:#181818;stroke-width:1;stroke-dasharray:2,2;"/><text x="63.952" y="143.456" fill="#000" font-size="13" textLength="122.865">enlace o QR de pago</text><polygon points="240.186,174.664,230.186,178.664,240.186,182.664,236.186,178.664" fill="#181818" style="stroke:#181818;stroke-width:1;stroke-linejoin:miter;stroke-miterlimit:10;"/><line x1="234.186" y1="178.664" x2="426.334" y2="178.664" style="stroke:#181818;stroke-width:1;"/><text x="246.186" y="173.808" fill="#000" font-size="13" textLength="81.669">abre el enlace</text><polygon points="415.334,205.016,425.334,209.016,415.334,213.016,419.334,209.016" fill="#181818" style="stroke:#181818;stroke-width:1;stroke-linejoin:miter;stroke-miterlimit:10;"/><line x1="229.186" y1="209.016" x2="421.334" y2="209.016" style="stroke:#181818;stroke-width:1;stroke-dasharray:2,2;"/><text x="236.186" y="204.159" fill="#000" font-size="13" textLength="174.148">autorización firmada del cobro</text><polygon points="613.482,235.367,623.482,239.367,613.482,243.367,617.482,239.367" fill="#181818" style="stroke:#181818;stroke-width:1;stroke-linejoin:miter;stroke-miterlimit:10;"/><line x1="427.334" y1="239.367" x2="619.482" y2="239.367" style="stroke:#181818;stroke-width:1;"/><text x="434.334" y="234.511" fill="#000" font-size="13" textLength="174.148">paga (GatoPago o MetaMask)</text><polygon points="871.558,265.719,881.558,269.719,871.558,273.719,875.558,269.719" fill="#181818" style="stroke:#181818;stroke-width:1;stroke-linejoin:miter;stroke-miterlimit:10;"/><line x1="625.482" y1="269.719" x2="877.558" y2="269.719" style="stroke:#181818;stroke-width:1;"/><text x="632.482" y="264.862" fill="#000" font-size="13" textLength="234.076">USDC, directo o por CCTP si es otra red</text><polygon points="613.482,296.07,623.482,300.07,613.482,304.07,617.482,300.07" fill="#181818" style="stroke:#181818;stroke-width:1;stroke-linejoin:miter;stroke-miterlimit:10;"/><line x1="229.186" y1="300.07" x2="619.482" y2="300.07" style="stroke:#181818;stroke-width:1;"/><text x="236.186" y="295.214" fill="#000" font-size="13" textLength="150.313">confirma el pago en la red</text><polygon points="57.952,326.422,47.952,330.422,57.952,334.422,53.952,330.422" fill="#181818" style="stroke:#181818;stroke-width:1;stroke-linejoin:miter;stroke-miterlimit:10;"/><line x1="51.952" y1="330.422" x2="228.186" y2="330.422" style="stroke:#181818;stroke-width:1;"/><text x="63.952" y="325.565" fill="#000" font-size="13" textLength="98.998">webhook firmado</text><?plantuml-src LP1TJiCm3CVVSmfhJvl4Bh079DG9nCEaRem3kAc1Q6bSEQccSIsEmCLmsmobRv7pi_yVFKforlKO4bJSaLZ7fY-6pvwl1crYWSex2eaMtwiQRvrEJpmaaXLWXFcvfAf16OIMFDYiCh5xYia5DkQk3Tl7IH9sO8LG56-4OMqvHFO834_rwyPCo5RP_xqTKF1eIOdZIOMWnqyssN9n5HiXK1ipNHpAf1A3XdNVQDtlJu0F9nssT-lgfRmvHzKT5KDOls3YMcNLmu4I7Z1UDYOpIkUmYh-_xQi7Q9sG5gjqFxPRdMk83YW29q4GQhExGaThc0oD2SQ06WFyaYqQkLBpnNp96VWF?></g></svg>